<?xml version="1.0" encoding="utf-8"?>
<!-- Generator: Adobe Illustrator 27.7.0, SVG Export Plug-In . SVG Version: 6.00 Build 0)  -->
<svg version="1.1" id="Layer_1" xmlns="http://www.w3.org/2000/svg" xmlns:xlink="http://www.w3.org/1999/xlink" x="0px" y="0px"
	 viewBox="0 0 95.6 95.6" style="enable-background:new 0 0 95.6 95.6;" xml:space="preserve">
<style type="text/css">
	.st0{fill:#010101;}
</style>
<path class="st0" d="M0.1,66.3c0.1,0.7,0.6,1.3,1.2,1.4l5.6,1.2c0.2,0.9,0.4,1.9,0.8,2.8l-4.2,3.8C3,76,2.8,76.8,3.1,77.4
	c0.8,1.6,1.6,3.1,2.5,4.4c0.4,0.6,1.1,0.8,1.8,0.6l5.4-1.7c0.6,0.7,1.3,1.4,2.1,2.1l-1.7,5.4c-0.2,0.7,0,1.4,0.6,1.8
	c1.3,0.9,2.8,1.8,4.4,2.5c0.6,0.3,1.4,0.2,1.9-0.4l3.8-4.2c0.9,0.3,1.9,0.6,2.8,0.8l1.2,5.6c0.1,0.7,0.7,1.2,1.4,1.2
	c0.9,0.1,1.7,0.1,2.6,0.1s1.7-0.1,2.6-0.1c0.7-0.1,1.3-0.6,1.4-1.2l1.2-5.6c1-0.2,1.9-0.4,2.8-0.8l3.8,4.2c0.5,0.5,1.2,0.7,1.9,0.4
	c1.6-0.8,3.1-1.6,4.4-2.5c0.6-0.4,0.8-1.1,0.6-1.8l-1.7-5.4c0.7-0.7,1.4-1.3,2.1-2.1l5.4,1.7c0.7,0.2,1.4,0,1.8-0.6
	c0.9-1.3,1.8-2.8,2.5-4.4c0.3-0.6,0.2-1.4-0.4-1.9l-4.2-3.8c0.3-0.9,0.5-1.8,0.8-2.8l5.5-1.2c0.7-0.2,1.2-0.7,1.2-1.4
	c0.1-0.8,0.1-1.7,0.1-2.6s-0.1-1.7-0.1-2.6c-0.1-0.7-0.6-1.3-1.2-1.4l-5.5-1.2c-0.2-1-0.4-1.9-0.8-2.8l4.2-3.8
	c0.5-0.5,0.7-1.2,0.4-1.9c-0.8-1.6-1.6-3.1-2.5-4.4c-0.4-0.6-1.1-0.8-1.8-0.6l-5.4,1.7c-0.7-0.7-1.3-1.4-2.1-2.1l1.7-5.4
	c0.2-0.7,0-1.4-0.6-1.8c-1.3-0.9-2.8-1.8-4.4-2.5c-0.6-0.3-1.4-0.2-1.9,0.4l-3.8,4.2C39,39.2,38,39,37.1,38.8l-1.2-5.5
	c-0.2-0.7-0.7-1.2-1.4-1.2c-1.7-0.1-3.4-0.1-5.1,0c-0.7,0.1-1.3,0.6-1.4,1.2l-1.2,5.5c-1,0.2-1.9,0.4-2.8,0.8l-3.8-4.2
	c-0.5-0.5-1.2-0.7-1.9-0.4c-1.6,0.8-3.1,1.6-4.4,2.5c-0.6,0.4-0.8,1.1-0.6,1.8l1.7,5.4c-0.7,0.7-1.4,1.3-2.1,2.1L7.4,45
	c-0.7-0.2-1.4,0-1.8,0.6c-0.9,1.3-1.8,2.8-2.5,4.4c-0.3,0.6-0.2,1.4,0.4,1.9l4.2,3.8c-0.3,0.9-0.6,1.8-0.8,2.8l-5.6,1.2
	c-0.7,0.2-1.2,0.7-1.2,1.4C0,62,0,62.9,0,63.7C0,64.6,0,65.5,0.1,66.3L0.1,66.3z M3.2,62.6l5.4-1.2c0.6-0.1,1.1-0.7,1.2-1.3
	c0.2-1.5,0.6-2.9,1.1-4.3c0.2-0.6,0.1-1.3-0.4-1.7l-4.1-3.7c0.4-0.7,0.7-1.3,1.1-2l5.2,1.7c0.6,0.2,1.3,0,1.7-0.5
	c0.9-1.2,2-2.2,3.1-3.2c0.5-0.4,0.7-1.1,0.5-1.7l-1.7-5.2c0.6-0.4,1.3-0.8,2-1.1l3.7,4.1c0.4,0.5,1.1,0.7,1.8,0.4
	c1.4-0.5,2.8-0.9,4.3-1.2c0.6-0.1,1.2-0.6,1.3-1.2l1.2-5.4c0.8,0,1.5,0,2.3,0l1.2,5.4c0.1,0.6,0.7,1.1,1.3,1.2
	c1.5,0.2,2.9,0.6,4.3,1.2c0.6,0.2,1.3,0.1,1.7-0.4l3.7-4.1c0.7,0.4,1.3,0.7,2,1.1l-1.7,5.2c-0.2,0.6,0,1.3,0.5,1.7
	c1.2,0.9,2.2,2,3.2,3.2c0.4,0.5,1.1,0.7,1.7,0.5l5.2-1.7c0.4,0.6,0.8,1.3,1.1,2l-4.1,3.7c-0.5,0.4-0.7,1.1-0.4,1.8
	c0.5,1.4,0.9,2.8,1.2,4.3c0.1,0.7,0.6,1.2,1.2,1.3l5.4,1.2c0,0.4,0,0.8,0,1.1s0,0.8,0,1.1l-5.4,1.2c-0.6,0.1-1.1,0.7-1.2,1.3
	c-0.2,1.5-0.6,2.9-1.2,4.3c-0.2,0.6-0.1,1.3,0.4,1.7l4.1,3.7c-0.4,0.7-0.7,1.3-1.1,2l-5.2-1.7c-0.6-0.2-1.3,0-1.7,0.5
	c-0.9,1.2-2,2.2-3.2,3.2c-0.5,0.4-0.7,1.1-0.5,1.7l1.7,5.2c-0.6,0.4-1.3,0.8-2,1.1L41.5,85c-0.4-0.5-1.1-0.7-1.8-0.4
	c-1.4,0.5-2.8,0.9-4.3,1.2c-0.7,0.1-1.2,0.6-1.3,1.2L33,92.4c-0.8,0-1.5,0-2.3,0L29.6,87c-0.1-0.6-0.6-1.1-1.3-1.2
	c-1.5-0.2-2.9-0.6-4.3-1.2c-0.6-0.2-1.3-0.1-1.7,0.4l-3.7,4.1c-0.7-0.4-1.3-0.7-2-1.1l1.7-5.2c0.2-0.6,0-1.3-0.5-1.7
	c-1.1-0.9-2.2-2-3.1-3.2c-0.4-0.5-1.1-0.7-1.7-0.5L7.6,79c-0.4-0.6-0.8-1.3-1.1-2l4.1-3.7c0.5-0.4,0.6-1.1,0.4-1.8
	c-0.5-1.4-0.9-2.8-1.1-4.3c-0.1-0.7-0.6-1.2-1.2-1.3l-5.4-1.2c0-0.4,0-0.8,0-1.1S3.2,63,3.2,62.6L3.2,62.6z"/>
<path class="st0" d="M83.2,22.7c0.6-0.2,1-0.7,1.1-1.3c0.1-0.8,0.1-1.5,0.1-2.2s0-1.4-0.1-2.2c-0.1-0.6-0.5-1.1-1.1-1.3l-4.4-1.4
	c-0.1-0.4-0.3-0.7-0.4-1.1L80.5,9c0.3-0.6,0.2-1.2-0.2-1.7c-0.9-1.2-2-2.2-3.2-3.2C76.7,3.7,76,3.7,75.4,4l-4.1,2.1
	C71,6,70.6,5.8,70.3,5.7l-1.4-4.4c-0.2-0.6-0.7-1-1.3-1.1c-1.6-0.2-2.8-0.2-4.5,0c-0.6,0.1-1.2,0.5-1.3,1.1l-1.4,4.4
	C60,5.8,59.6,6,59.3,6.1L55.2,4c-0.6-0.3-1.2-0.2-1.7,0.2c-1.2,0.9-2.2,2-3.2,3.2c-0.4,0.5-0.5,1.2-0.2,1.7l2.1,4.1
	c-0.2,0.4-0.3,0.7-0.4,1.1l-4.4,1.4c-0.6,0.2-1,0.7-1.1,1.3c-0.1,0.8-0.1,1.5-0.1,2.2s0,1.4,0.1,2.2c0.1,0.6,0.5,1.1,1.1,1.3
	l4.4,1.4c0.1,0.4,0.3,0.7,0.4,1.1l-2.1,4.1c-0.3,0.6-0.2,1.2,0.2,1.7c0.9,1.2,2,2.2,3.2,3.1c0.5,0.4,1.2,0.5,1.7,0.2l4.1-2.1
	c0.3,0.2,0.7,0.3,1.1,0.4l1.4,4.4c0.2,0.6,0.7,1,1.3,1.1c0.8,0.1,1.5,0.1,2.2,0.1s1.4,0,2.2-0.1c0.6-0.1,1.2-0.5,1.3-1.1l1.4-4.4
	c0.4-0.1,0.7-0.3,1.1-0.4l4.1,2.1c0.6,0.3,1.2,0.2,1.7-0.2c1.2-0.9,2.2-2,3.2-3.1c0.4-0.5,0.4-1.2,0.2-1.7l-2.1-4.1
	c0.2-0.4,0.3-0.7,0.4-1.1L83.2,22.7L83.2,22.7z M77.1,21.3c-0.5,0.2-0.9,0.6-1.1,1.1c-0.2,0.7-0.5,1.4-0.8,2.1c-0.2,0.5-0.2,1,0,1.5
	l2,3.9c-0.4,0.4-0.8,0.8-1.2,1.2l-3.9-2c-0.5-0.2-1-0.2-1.5,0c-0.7,0.4-1.3,0.6-2.1,0.9c-0.5,0.1-0.9,0.5-1.1,1L66.2,35
	c-0.6,0-1.1,0-1.7,0l-1.3-4.2c-0.2-0.5-0.6-0.9-1.1-1c-0.7-0.2-1.4-0.5-2.1-0.9c-0.5-0.2-1-0.2-1.5,0l-3.9,2
	c-0.4-0.4-0.8-0.8-1.2-1.2l2-3.9c0.2-0.5,0.2-1,0-1.5c-0.3-0.6-0.6-1.3-0.8-2.1c-0.2-0.5-0.5-0.9-1-1.1L49.4,20c0-0.3,0-0.6,0-0.8
	s0-0.5,0-0.8l4.2-1.3c0.5-0.2,0.9-0.6,1-1.1c0.2-0.7,0.5-1.4,0.8-2.1c0.2-0.5,0.2-1,0-1.5l-2-3.9c0.4-0.4,0.8-0.8,1.2-1.2l3.9,2
	c0.5,0.2,1,0.2,1.5,0c0.7-0.4,1.3-0.6,2.1-0.9c0.5-0.1,0.9-0.5,1.1-1.1l1.3-4.2c0.6,0,1.1,0,1.7,0l1.3,4.2c0.2,0.5,0.6,0.9,1.1,1.1
	C69.3,8.7,70,9,70.6,9.3c0.5,0.2,1,0.2,1.5,0l3.9-2c0.4,0.4,0.8,0.8,1.2,1.2l-2,3.9c-0.2,0.5-0.2,1,0,1.5c0.3,0.6,0.6,1.3,0.8,2.1
	c0.2,0.5,0.5,0.9,1.1,1.1l4.2,1.3c0,0.3,0,0.6,0,0.8s0,0.5,0,0.8L77.1,21.3z"/>
<path class="st0" d="M94.4,52.5l-2.7-1c-0.2-0.4-0.3-0.9-0.5-1.3l1.2-2.6c0.3-0.5,0.2-1.2-0.2-1.7c-0.8-1-1.7-1.9-2.7-2.7
	c-0.5-0.4-1.1-0.4-1.7-0.2l-2.6,1.2c-0.4-0.2-0.9-0.4-1.3-0.5l-1-2.7c-0.2-0.6-0.7-1-1.3-1c-1.4-0.2-2.4-0.2-3.9,0
	c-0.6,0.1-1.1,0.5-1.3,1l-1,2.7c-0.4,0.2-0.9,0.3-1.3,0.5l-2.6-1.2c-0.5-0.3-1.2-0.2-1.7,0.2c-1,0.8-1.9,1.7-2.7,2.7
	c-0.4,0.5-0.4,1.1-0.2,1.7l1.2,2.6c-0.2,0.4-0.4,0.9-0.5,1.3l-2.7,1c-0.6,0.2-1,0.7-1,1.3c-0.1,0.7-0.1,1.3-0.1,1.9s0,1.2,0.1,1.9
	c0.1,0.6,0.5,1.1,1,1.3l2.7,1c0.2,0.4,0.3,0.9,0.5,1.3L67,63.9c-0.3,0.5-0.2,1.2,0.2,1.7c0.8,1,1.7,1.9,2.7,2.7
	c0.5,0.4,1.1,0.4,1.7,0.2l2.6-1.2c0.4,0.2,0.9,0.4,1.3,0.5l1,2.7c0.2,0.6,0.7,1,1.3,1.1c0.7,0.1,1.3,0.1,1.9,0.1s1.2,0,1.9-0.1
	c0.6-0.1,1.1-0.5,1.3-1.1l1-2.7c0.4-0.2,0.9-0.3,1.3-0.5l2.6,1.2c0.5,0.3,1.2,0.2,1.7-0.2c1-0.8,1.9-1.7,2.7-2.7
	c0.4-0.5,0.4-1.1,0.2-1.7l-1.2-2.6c0.2-0.4,0.4-0.9,0.5-1.3l2.7-1c0.6-0.2,1-0.7,1.1-1.3c0.1-0.7,0.1-1.3,0.1-1.9s0-1.2-0.1-1.9
	C95.4,53.2,95,52.7,94.4,52.5L94.4,52.5z M92.4,56.4l-2.5,0.9c-0.5,0.2-0.9,0.6-1,1.1c-0.2,0.8-0.5,1.5-0.9,2.2
	c-0.2,0.5-0.3,1-0.1,1.5l1.1,2.4c-0.3,0.3-0.5,0.6-0.8,0.8l-2.4-1.1c-0.5-0.2-1-0.2-1.5,0.1c-0.7,0.4-1.4,0.7-2.1,0.9
	c-0.5,0.1-0.9,0.5-1.1,1l-0.9,2.5c-0.4,0-0.8,0-1.2,0L78.2,66c-0.2-0.5-0.6-0.9-1.1-1c-0.8-0.2-1.5-0.5-2.2-0.9
	c-0.4-0.2-1-0.3-1.5-0.1l-2.4,1.1c-0.3-0.3-0.6-0.5-0.8-0.8l1.1-2.4c0.2-0.5,0.2-1-0.1-1.5c-0.4-0.7-0.7-1.4-0.9-2.1
	c-0.1-0.5-0.5-0.9-1-1.1l-2.5-0.9c0-0.2,0-0.4,0-0.6s0-0.4,0-0.6l2.5-0.9c0.5-0.2,0.9-0.6,1-1.1c0.2-0.8,0.5-1.5,0.9-2.2
	c0.2-0.5,0.3-1,0.1-1.5l-1.1-2.4c0.3-0.3,0.5-0.6,0.8-0.8l2.4,1.1c0.5,0.2,1,0.2,1.5,0c0.7-0.4,1.4-0.7,2.1-0.9
	c0.5-0.1,0.9-0.5,1.1-1l0.9-2.5c0.4,0,0.8,0,1.2,0l0.9,2.5c0.2,0.5,0.6,0.9,1.1,1c0.8,0.2,1.5,0.5,2.2,0.9c0.4,0.3,1,0.3,1.5,0
	l2.4-1.1c0.3,0.3,0.6,0.5,0.8,0.8L88,49.6c-0.2,0.5-0.2,1,0.1,1.5c0.4,0.7,0.7,1.4,0.9,2.1c0.1,0.5,0.5,0.9,1,1.1l2.5,0.9
	c0,0.2,0,0.4,0,0.6S92.4,56.2,92.4,56.4L92.4,56.4z"/>
<path class="st0" d="M31.9,81.3c9.7,0,17.5-7.9,17.5-17.5s-7.9-17.5-17.5-17.5s-17.5,7.9-17.5,17.5S22.2,81.3,31.9,81.3z M31.9,49.4
	c7.9,0,14.3,6.4,14.3,14.3s-6.4,14.3-14.3,14.3s-14.3-6.4-14.3-14.3S24,49.4,31.9,49.4z"/>
<path class="st0" d="M65.3,11.1c-4.4,0-8,3.6-8,8s3.6,8,8,8s8-3.6,8-8S69.7,11.1,65.3,11.1z M65.3,23.9c-2.6,0-4.8-2.1-4.8-4.8
	s2.1-4.8,4.8-4.8s4.8,2.1,4.8,4.8S68,23.9,65.3,23.9z"/>
<path class="st0" d="M79.7,49.4c-3.5,0-6.4,2.9-6.4,6.4s2.9,6.4,6.4,6.4s6.4-2.9,6.4-6.4S83.2,49.4,79.7,49.4z M79.7,59
	c-1.8,0-3.2-1.4-3.2-3.2s1.4-3.2,3.2-3.2s3.2,1.4,3.2,3.2S81.4,59,79.7,59z"/>
</svg>
