<?xml version="1.0" encoding="UTF-8"?><svg id="Layer_1" xmlns="http://www.w3.org/2000/svg" viewBox="0 0 358.44 83.4"><defs><style>.cls-1,.cls-2{fill:#231f20;}.cls-2{font-family:AvenirNext-Medium, 'Avenir Next';font-size:58px;font-weight:500;}</style></defs><path class="cls-1" d="m66.97,80.18v-.88c-.52.3-1.04.59-1.58.88h1.58Z"/><path class="cls-1" d="m55.69,10.66c-2.7-3.21-6.1-5.79-10.19-7.74-4.09-1.95-8.71-2.92-13.86-2.92s-9.28.84-13.16,2.52c-3.88,1.68-7.19,3.96-9.94,6.82-2.74,2.87-4.85,6.19-6.33,9.97-1.48,3.78-2.21,7.78-2.21,11.98,0,4.59.7,8.79,2.09,12.61,1.39,3.82,3.46,7.11,6.2,9.86,2.74,2.75,6.09,4.89,10.06,6.42,3.97,1.53,8.52,2.29,13.67,2.29,3.43,0,6.71-.42,9.86-1.24v-11.36c-2.53,1.51-5.81,2.28-9.86,2.28-3.04,0-5.65-.48-7.85-1.43-2.2-.95-4.01-2.24-5.44-3.84-1.44-1.6-2.51-3.48-3.23-5.62-.72-2.14-1.08-4.36-1.08-6.65h48.09c.59-4.43.27-8.73-.95-12.9-1.22-4.16-3.19-7.85-5.88-11.06ZM14.43,26.02c.08-2.22.57-4.28,1.46-6.19.89-1.91,2.07-3.57,3.54-4.99,1.48-1.41,3.25-2.52,5.32-3.32,2.07-.8,4.37-1.2,6.9-1.2s4.66.44,6.64,1.32c1.98.88,3.67,2.03,5.06,3.44,1.39,1.41,2.49,3.08,3.29,4.99.8,1.91,1.29,3.9,1.46,5.96H14.43Z"/><path class="cls-1" d="m63.11,78.13c-.7-.31-1.19-.73-1.46-1.26s-.41-1.8-.41-3.83v-10.41c4.7,0,8.03-.22,10.01-.66,2.93-.63,5.23-1.81,6.89-3.54,1.67-1.73,2.5-3.82,2.5-6.26,0-2.88-1.29-5.28-3.87-7.2-2.58-1.92-6.84-2.88-12.78-2.88h-18.03v1.02c1.89,0,3.18.16,3.87.47.69.31,1.17.73,1.45,1.26.27.53.41,1.8.41,3.83v24.36c0,2.03-.14,3.3-.41,3.82-.28.52-.75.94-1.43,1.26-.68.32-1.98.48-3.89.48v1.02h19.44c.53-.28,1.06-.58,1.58-.88v-.15c-1.87,0-3.16-.16-3.86-.47Zm-1.88-33.88h1.25c2.66,0,4.67.65,6.01,1.94,1.34,1.29,2.01,3.33,2.01,6.12s-.67,4.88-2.01,6.21c-1.34,1.34-3.25,2.01-5.74,2.01-.35,0-.85-.02-1.53-.06v-16.22Z"/><text class="cls-2" transform="translate(100.45 58.11)"><tspan x="0" y="0">Binder</tspan></text></svg>