<?xml version="1.0" ?><svg height="100px" version="1.1" viewBox="0 0 100 100" width="100px" xmlns="http://www.w3.org/2000/svg" xmlns:sketch="http://www.bohemiancoding.com/sketch/ns" xmlns:xlink="http://www.w3.org/1999/xlink"><title/><desc/><defs/><g fill="none" fill-rule="evenodd" id="Page-2" stroke="none" stroke-width="1"><g fill="#000000" id="Camera"><path d="M29.7777778,28 L14.00362,28 C9.58618247,28 6,31.5834041 6,36.003757 L6,77.996243 C6,82.4156105 9.58334272,86 14.00362,86 L85.99638,86 C90.4138175,86 94,82.4165959 94,77.996243 L94,36.003757 C94,31.5843895 90.4166573,28 85.99638,28 L70.2222222,28 L64,14 L36,14 L29.7777778,28 L29.7777778,28 L29.7777778,28 Z M50,76 C61.045695,76 70,67.045695 70,56 C70,44.954305 61.045695,36 50,36 C38.954305,36 30,44.954305 30,56 C30,67.045695 38.954305,76 50,76 L50,76 L50,76 Z M50,68 C56.627417,68 62,62.627417 62,56 C62,49.372583 56.627417,44 50,44 C43.372583,44 38,49.372583 38,56 C38,62.627417 43.372583,68 50,68 L50,68 L50,68 Z M78,40 C78,37.790861 79.7953562,36 82,36 L82,36 C84.209139,36 86,37.7953562 86,40 L86,40 C86,42.209139 84.2046438,44 82,44 L82,44 C79.790861,44 78,42.2046438 78,40 L78,40 L78,40 Z" id="Shape"/></g></g></svg>