<?xml version="1.0" encoding="UTF-8"?><svg id="Layer_1" xmlns="http://www.w3.org/2000/svg" viewBox="0 0 72.81 96.31"><defs><style>.cls-1{stroke-linecap:round;}.cls-1,.cls-2{fill:none;stroke:#231f20;stroke-linejoin:round;stroke-width:2.5px;}</style></defs><path class="cls-2" d="m51.91,95.06c-6.48-13.48-6.17-13.18-19.65-19.65,13.48-6.48,13.18-6.18,19.65-19.65,6.48,13.48,6.17,13.18,19.65,19.65-13.48,6.48-13.17,6.17-19.65,19.65Z"/><path class="cls-2" d="m16.82,66.38c-5.13-10.68-4.89-10.44-15.57-15.57,10.68-5.13,10.44-4.9,15.57-15.57,5.13,10.68,4.89,10.44,15.57,15.57-10.68,5.13-10.44,4.89-15.57,15.57Z"/><line class="cls-1" x1="8.79" y1="78.24" x2="8.79" y2="91.76"/><line class="cls-1" x1="15.55" y1="85" x2="2.03" y2="85"/><line class="cls-1" x1="41.84" y1="1.25" x2="41.84" y2="14.77"/><line class="cls-1" x1="48.6" y1="8.01" x2="35.09" y2="8.01"/><line class="cls-1" x1="58.16" y1="19.4" x2="58.16" y2="38.23"/><line class="cls-1" x1="67.57" y1="28.82" x2="48.75" y2="28.82"/></svg>