<?xml version="1.0" ?><!DOCTYPE svg  PUBLIC '-//W3C//DTD SVG 1.1//EN'  'http://www.w3.org/Graphics/SVG/1.1/DTD/svg11.dtd'><svg enable-background="new 0 0 100 100" id="Layer_1" version="1.1" viewBox="0 0 100 100" xml:space="preserve" xmlns="http://www.w3.org/2000/svg" xmlns:xlink="http://www.w3.org/1999/xlink"><path d="M51.2,5c-24.9,0-45,20.1-45,45s20.1,45,45,45s45-20.1,45-45S76.1,5,51.2,5z M74.1,72.6H28.4c-2.4,0-4.3-2-4.3-4.5  c0-2.5,1.9-4.5,4.3-4.5h45.7c2.4,0,4.3,2,4.3,4.5C78.4,70.6,76.5,72.6,74.1,72.6z M74.1,54.5H28.4c-2.4,0-4.3-2-4.3-4.5  s1.9-4.5,4.3-4.5h45.7c2.4,0,4.3,2,4.3,4.5S76.5,54.5,74.1,54.5z M74.1,36.4H28.4c-2.4,0-4.3-2-4.3-4.5s1.9-4.5,4.3-4.5h45.7  c2.4,0,4.3,2,4.3,4.5S76.5,36.4,74.1,36.4z"/></svg>