<?xml version="1.0" encoding="UTF-8"?><svg id="Layer_1" xmlns="http://www.w3.org/2000/svg" viewBox="0 0 90.09 97.6"><defs><style>.cls-1{fill:#010101;fill-rule:evenodd;}</style></defs><g id="action"><g id="action_118-book_sync-read-notebook-update-arrow"><path id="book" class="cls-1" d="m71.32,60.14V3.75H15.01v90.08h42.25c1.18,1.42,2.54,2.69,4.05,3.75H1.88c-1.04,0-1.88-.84-1.88-1.88V1.88C0,.84.84,0,1.88,0h71.32c1.04,0,1.88.84,1.88,1.88v58.26c-.62-.06-1.24-.08-1.88-.08s-1.26.03-1.88.08ZM11.26,3.75H3.75v90.08h7.51V3.75Z"/><path id="Shape" class="cls-1" d="m63.91,90c2.86,2.86,6.81,4.21,10.75,3.77,1.03-.11,1.96.63,2.07,1.66.11,1.03-.63,1.96-1.66,2.07-5.07.56-10.15-1.17-13.82-4.84-6.15-6.15-6.57-15.86-1.25-22.49l-1.41-1.41c-.74-.74-.47-1.44.57-1.58l5.53-.79c1.02-.15,1.76.57,1.61,1.61l-.79,5.53c-.15,1.02-.86,1.29-1.58.57l-1.25-1.25c-3.86,5.15-3.45,12.48,1.23,17.16Zm18.58-18.58c-2.86-2.86-6.8-4.2-10.74-3.77-1.03.11-1.96-.63-2.07-1.66-.11-1.03.63-1.96,1.66-2.07,5.06-.56,10.13,1.17,13.81,4.84,6.15,6.15,6.57,15.86,1.25,22.49l1.41,1.41c.73.73.46,1.44-.57,1.58l-5.53.79c-1.04.15-1.76-.59-1.61-1.61l.79-5.53c.15-1.04.84-1.31,1.58-.57l1.25,1.25c3.86-5.15,3.45-12.48-1.23-17.16Z"/></g></g></svg>