<?xml version="1.0" encoding="UTF-8"?><svg id="Layer_1" xmlns="http://www.w3.org/2000/svg" viewBox="0 0 74.25 98.39"><defs><style>.cls-1{fill:#010101;}</style></defs><path class="cls-1" d="m66.15,2.37H8.09C3.63,2.37,0,6,0,10.46v79.84c0,4.46,3.63,8.09,8.09,8.09h58.06c4.46,0,8.09-3.63,8.09-8.09V10.46c0-4.46-3.63-8.09-8.09-8.09Zm3.51,87.93c0,1.94-1.58,3.51-3.51,3.51H8.09c-1.94,0-3.51-1.58-3.51-3.51V10.46c0-1.94,1.58-3.51,3.51-3.51h58.06c1.94,0,3.51,1.58,3.51,3.51v79.84Z"/><path class="cls-1" d="m16.51,0h-8.41c-1.26,0-2.29,1.03-2.29,2.29s1.03,2.29,2.29,2.29h8.41c1.26,0,2.29-1.03,2.29-2.29s-1.03-2.29-2.29-2.29Z"/><path class="cls-1" d="m49.29,23.4c-.13.08-.25.18-.36.3L16.33,56.3s0,0,0,0c-.11.11-.2.22-.29.35-.04.06-.06.12-.1.18-.04.07-.08.14-.11.22-.06.14-.1.29-.13.44,0,0,0,0,0,0l-1.37,7.27c-.01.05,0,.11-.01.16-.01.09-.02.17-.02.26s.01.18.02.26c0,.05,0,.11.01.16,0,.01,0,.02,0,.03.01.06.03.12.05.17.02.08.05.16.08.24.02.05.05.1.07.15.04.08.08.16.12.23.03.05.06.09.1.13.05.07.1.13.16.19.04.04.08.08.13.12.06.05.12.1.18.15.05.04.1.07.15.11.07.04.14.08.22.11.05.03.1.05.16.07.1.04.21.07.31.09.03,0,.06.02.09.03,0,0,0,0,.01,0,.13.02.27.04.41.04h0c.14,0,.27-.01.41-.04,0,0,0,0,.01,0l7.27-1.37s0,0,0,0c.15-.03.29-.07.43-.13.11-.04.2-.1.3-.16.03-.02.07-.03.1-.05.13-.08.25-.18.35-.29,0,0,0,0,0,0l32.6-32.6c.11-.11.21-.23.29-.36,2.19-2.53,2.11-6.37-.29-8.77-2.4-2.41-6.23-2.49-8.77-.3Zm5.53,6.19L22.73,61.69l-3.27.62.62-3.27L52.16,26.95s0,0,0,0c.73-.73,1.92-.73,2.66,0,.73.73.73,1.92,0,2.66Z"/><path class="cls-1" d="m50.55,62.2h-18.92c-1.26,0-2.29,1.03-2.29,2.29s1.03,2.29,2.29,2.29h18.92c1.26,0,2.29-1.03,2.29-2.29s-1.03-2.29-2.29-2.29Z"/></svg>