<?xml version="1.0" ?><svg enable-background="new 0 0 16 16" height="16" version="1.1" viewBox="0 0 16 16" width="16" xml:space="preserve" xmlns="http://www.w3.org/2000/svg"><path d="M15.854 14.439l-3.253-3.253C13.476 10.019 14 8.572 14 7c0-3.866-3.134-7-7-7S0 3.134 0 7s3.134 7 7 7c1.572 0 3.019-0.524 4.187-1.399l3.253 3.253C14.537 15.951 14.665 16 14.793 16h0.414c0.128 0 0.256-0.049 0.354-0.146l0.293-0.293C15.951 15.463 16 15.335 16 15.207v-0.414C16 14.665 15.951 14.537 15.854 14.439zM7 12c-2.762 0-5-2.238-5-5s2.238-5 5-5 5 2.238 5 5S9.762 12 7 12z"/></svg>