<?xml version="1.0" encoding="UTF-8"?><svg id="Layer_1" xmlns="http://www.w3.org/2000/svg" viewBox="0 0 97.05 96.98"><defs><style>.cls-1{fill:#020202;}</style></defs><path class="cls-1" d="m.21,52.36c.09,1.07.85,1.95,1.9,2.18l8.45,1.83c.3,1.45.67,2.86,1.14,4.25l-6.39,5.8c-.79.72-1.02,1.87-.56,2.85,1.17,2.47,2.47,4.73,3.87,6.76.61.88,1.72,1.26,2.74.93l8.22-2.65c.99,1.1,2.02,2.15,3.14,3.14l-2.65,8.22c-.33,1.02.05,2.13.93,2.74,2.02,1.4,4.29,2.71,6.76,3.87.97.46,2.12.23,2.85-.56l5.8-6.39c1.38.46,2.82.84,4.25,1.14l1.83,8.45c.23,1.05,1.11,1.83,2.18,1.9,1.29.11,2.59.2,3.9.2s2.6-.09,3.9-.2c1.07-.09,1.95-.85,2.18-1.9l1.83-8.45c1.45-.3,2.86-.67,4.25-1.14l5.8,6.39c.72.79,1.87,1.02,2.85.56,2.47-1.17,4.73-2.48,6.76-3.87.88-.61,1.26-1.72.93-2.74l-2.65-8.22c1.1-.99,2.15-2.02,3.14-3.12l8.22,2.65c1.02.33,2.13-.05,2.74-.93,1.4-2.02,2.71-4.29,3.87-6.76.46-.97.23-2.12-.56-2.85l-6.39-5.8c.46-1.38.84-2.82,1.14-4.25l8.45-1.83c1.05-.23,1.83-1.11,1.9-2.18.11-1.29.2-2.59.2-3.9s-.09-2.6-.2-3.9c-.09-1.07-.85-1.95-1.9-2.18l-8.45-1.83c-.3-1.45-.67-2.86-1.14-4.25l6.39-5.8c.79-.72,1.02-1.87.56-2.85-1.17-2.47-2.48-4.73-3.87-6.76-.61-.88-1.72-1.26-2.74-.93l-8.22,2.65c-.99-1.1-2.02-2.15-3.14-3.14l2.65-8.22c.33-1.02-.05-2.13-.93-2.74-2.02-1.4-4.29-2.71-6.76-3.87-.97-.46-2.12-.23-2.85.56l-5.8,6.39c-1.38-.46-2.82-.84-4.25-1.14l-1.83-8.45c-.23-1.05-1.11-1.83-2.18-1.9-2.59-.21-5.22-.2-7.81,0-1.07.09-1.95.85-2.18,1.9l-1.83,8.45c-1.45.3-2.86.67-4.25,1.14l-5.8-6.39c-.72-.79-1.87-1.02-2.85-.56-2.47,1.17-4.73,2.47-6.76,3.87-.88.61-1.26,1.72-.93,2.74l2.65,8.22c-1.1.99-2.15,2.02-3.14,3.14l-8.22-2.65c-1.02-.33-2.13.05-2.74.93-1.4,2.02-2.71,4.29-3.87,6.76-.46.97-.23,2.12.56,2.85l6.39,5.8c-.46,1.38-.84,2.82-1.14,4.25l-8.45,1.83c-1.05.23-1.83,1.11-1.9,2.18-.11,1.29-.2,2.59-.2,3.9s.09,2.6.2,3.9l.02-.02Zm4.7-5.62l8.25-1.78c.97-.21,1.72-.99,1.89-1.98.37-2.24.94-4.43,1.75-6.53.35-.93.11-1.99-.64-2.65l-6.22-5.65c.55-1.03,1.11-2.04,1.7-2.98l7.99,2.57c.94.3,1.99,0,2.62-.78,1.43-1.75,3.04-3.36,4.79-4.79.78-.62,1.08-1.67.78-2.62l-2.57-7.99c.94-.59,1.93-1.16,2.98-1.7l5.65,6.24c.67.75,1.74.99,2.66.64,2.09-.79,4.29-1.38,6.53-1.75.99-.17,1.77-.91,1.98-1.89l1.78-8.25c1.14-.06,2.3-.06,3.44,0l1.78,8.25c.21.97.99,1.72,1.98,1.89,2.24.37,4.43.94,6.53,1.75.93.35,1.98.11,2.65-.64l5.65-6.22c1.03.55,2.04,1.11,2.98,1.7l-2.57,7.99c-.3.94,0,1.99.78,2.62,1.75,1.43,3.36,3.04,4.79,4.79.64.78,1.67,1.08,2.62.78l7.99-2.57c.59.94,1.16,1.93,1.7,2.98l-6.24,5.65c-.75.67-.99,1.72-.64,2.66.79,2.09,1.38,4.29,1.75,6.53.17.99.91,1.77,1.89,1.98l8.25,1.78c.03.56.06,1.14.06,1.72s-.02,1.16-.05,1.72l-8.25,1.78c-.97.21-1.72.99-1.89,1.98-.37,2.24-.94,4.43-1.75,6.53-.35.93-.11,1.99.64,2.65l6.22,5.65c-.55,1.03-1.11,2.04-1.7,2.98l-7.99-2.57c-.96-.3-1.99,0-2.62.78-1.43,1.75-3.04,3.36-4.79,4.79-.78.62-1.08,1.67-.78,2.62l2.57,7.99c-.94.59-1.93,1.16-2.98,1.7l-5.65-6.24c-.67-.75-1.72-.99-2.66-.64-2.09.79-4.29,1.38-6.53,1.75-.99.17-1.77.91-1.98,1.89l-1.78,8.25c-1.14.06-2.3.06-3.44,0l-1.78-8.25c-.21-.97-.99-1.72-1.98-1.89-2.24-.37-4.43-.94-6.53-1.75-.93-.35-1.99-.11-2.65.64l-5.65,6.22c-1.03-.55-2.04-1.11-2.98-1.7l2.57-7.99c.3-.94,0-1.99-.78-2.62-1.75-1.43-3.36-3.04-4.79-4.79-.64-.78-1.67-1.08-2.62-.78l-7.99,2.57c-.59-.94-1.16-1.93-1.7-2.98l6.24-5.65c.75-.67.99-1.72.64-2.66-.79-2.09-1.38-4.29-1.75-6.53-.17-.99-.91-1.77-1.89-1.98l-8.25-1.78c-.03-.56-.05-1.14-.05-1.72s.02-1.16.05-1.72h-.02Z"/><path class="cls-1" d="m48.52,75.14c14.7,0,26.68-11.96,26.68-26.68s-11.96-26.68-26.68-26.68-26.68,11.96-26.68,26.68,11.96,26.68,26.68,26.68Zm0-48.5c12.04,0,21.82,9.79,21.82,21.82s-9.79,21.82-21.82,21.82-21.82-9.79-21.82-21.82,9.79-21.82,21.82-21.82Z"/></svg>